<?xml version="1.0" encoding="utf-8"?>
<svg viewBox="0 0 500 500" xmlns="http://www.w3.org/2000/svg" xmlns:xlink="http://www.w3.org/1999/xlink">
  <defs>
    <linearGradient y2="22.401928" x2="106.24998" y1="22.901928" x1="143.49998" gradientTransform="matrix(0.37606897,0,0,0.37606891,284.34192,546.05033)" gradientUnits="userSpaceOnUse" id="linearGradient7459" xlink:href="#linearGradient5507-3"/>
    <filter id="outline-filter-0" x="-500%" y="-500%" width="1000%" height="1000%">
      <title>Outline</title>
      <feMorphology in="SourceAlpha" result="dilated" operator="dilate" radius="1"/>
      <feFlood flood-color="rgba(0,0,0,1)" result="flood"/>
      <feComposite in="flood" in2="dilated" operator="in" result="outline"/>
      <feMerge>
        <feMergeNode in="outline"/>
        <feMergeNode in="SourceGraphic"/>
      </feMerge>
    </filter>
  </defs>
  <g id="layer1" transform="matrix(5.85926, 0, 0, 5.830493, -1674.21521, -3108.120361)" style="">
    <g id="g4793" transform="matrix(0.96766596,0,0,0.94944363,10.181651,28.771222)">
      <text style="font-size: 15.0428px; font-style: normal; font-weight: normal; line-height: 125%; letter-spacing: 0px; word-spacing: 0px; fill: url(#linearGradient7459); fill-opacity: 1; stroke: none; font-family: &quot;StoneSerITCStd Medium&quot;; white-space: pre;" x="319.97443" y="555.13312" id="text5503" transform="scale(0.99053965,1.0095507)"><tspan id="tspan5505" x="319.97443" y="555.13312" style="font-size:2.25641346px;fill:url(#linearGradient7459);fill-opacity:1">Created by Falzar FZ</tspan></text>
      <g transform="translate(0.00547206,0.0258127)" id="g3021" style="display:inline">
        <g id="g4771" transform="translate(-85.682227,0.42272594)" style="fill:#ffffff;fill-opacity:1"/>
        <g>
          <path style="fill-opacity: 1; fill: rgb(210, 51, 72);" d="M 325.125 533.768 C 325.125 533.768 323.628 533.809 322.87 533.865 C 322.121 533.92 321.374 534.001 320.631 534.103 C 319.143 534.311 317.67 534.608 316.221 534.996 C 313.325 535.772 310.528 536.904 307.908 538.35 C 302.679 541.26 298.165 545.411 295.025 550.594 C 290.039 558.331 287.721 567.74 288.204 576.946 C 288.688 586.153 291.958 595.171 298.124 602.163 C 306.036 611.106 318.24 615.693 330.095 614.852 C 343.056 614.586 355.701 607.106 361.794 595.586 C 367.192 586.147 368.718 574.773 366.52 564.154 C 365.367 557.165 361.981 550.582 357.152 545.373 C 352.324 540.165 346.065 536.31 339.15 534.697 C 334.551 533.853 329.796 533.731 325.125 533.768 Z" id="path3048"/>
          <path d="M 325.121 533.268 C 329.8 533.231 334.626 533.362 339.264 534.21 C 346.253 535.854 352.638 539.782 357.519 545.033 C 362.387 550.298 365.833 557.004 367.012 564.062 C 369.213 574.765 367.658 586.299 362.232 595.827 C 356.045 607.446 343.197 615.046 330.118 615.352 C 318.157 616.177 305.76 611.505 297.749 602.494 C 291.535 595.422 288.203 586.251 287.705 576.972 C 287.229 567.693 289.585 558.141 294.601 550.329 C 297.786 545.091 302.39 540.857 307.666 537.912 C 310.313 536.453 313.167 535.299 316.092 534.513 C 317.556 534.121 319.06 533.818 320.563 533.608 C 321.313 533.505 322.076 533.422 322.833 533.366 C 323.603 533.31 325.121 533.268 325.121 533.268 Z M 322.907 534.364 C 322.166 534.418 321.435 534.497 320.7 534.598 C 319.227 534.804 317.784 535.095 316.35 535.479 C 313.483 536.245 310.743 537.354 308.15 538.787 C 302.969 541.663 298.548 545.725 295.453 550.853 C 290.499 558.514 288.213 567.787 288.703 576.92 C 289.173 586.055 292.381 594.92 298.499 601.832 C 306.312 610.707 318.31 615.21 330.06 614.353 C 342.898 614.122 355.353 606.774 361.352 595.352 C 366.719 586.004 368.225 574.79 366.03 564.255 C 364.902 557.34 361.575 550.866 356.785 545.713 C 352.01 540.548 345.884 536.771 339.048 535.187 C 334.492 534.349 329.796 534.231 325.134 534.268 C 325.041 534.271 323.653 534.308 322.907 534.364 Z" style="fill: none;"/>
          <path style="fill-opacity: 1; stroke: none; fill: rgb(141, 75, 153);" d="M 319.258 534.423 C 302.086 537.167 291.786 551.067 288.735 567.176 C 286.469 580.421 290.851 596.025 299.763 603.914 C 306.91 610.241 311.734 614.892 330.989 615.051 C 343.881 615.158 356.576 606.286 363.104 594.762 C 369.748 583.034 367.167 566.665 366.2 562.539 C 363.5 567.248 358.755 571.954 347.805 571.917 C 340.089 572.665 338.592 575.65 347.274 580.897 C 340.542 585.836 339.908 587.467 336.412 588.363 C 334.262 585.704 329.569 580.27 326.096 580.494 C 323.252 597.85 315.337 593.187 310.916 586.988 C 301.103 571.458 299.408 569.416 299.265 561.534 C 300.84 547.508 304.588 539.698 319.258 534.423 Z" id="path3048-3"/>
        </g>
      </g>
      <g id="g3783" transform="translate(-92.915959,-2.0293745)" style="fill:#fff9f9;fill-opacity:1">
        <path d="m 413.01766,587.4904 c 0,0 -0.55161,1.94613 -0.008,2.97743 -0.005,1.98581 -0.0191,6.96001 -0.0245,8.93742 -0.77264,1.29516 -0.008,2.92702 -0.008,2.92702 l 18.68984,-0.006 c 0,0 0.76573,-1.32511 0.0358,-3.01444 0.0237,-1.9919 0.0828,-6.96675 0.10623,-8.93693 0.60471,-1.0486 0.0343,-2.8842 0.0343,-2.8842 z m 15.35787,2.97189 -0.0174,2.97044 -11.5988,-0.013 -0.0618,-2.92409 z m 0.005,5.95467 -0.0476,2.93962 -11.57866,0.009 -0.0583,-2.96932 z m -7.53731,-22.78955 c -0.008,1.02184 0.72561,2.91431 0.72561,2.91431 0,0 -8.81406,0.0127 -11.01918,0.0759 -0.84154,0.86957 -0.89045,1.6531 0.53266,2.46141 1.25664,-0.42279 3.63252,-0.54071 5.33748,-0.19547 0.26111,0.60596 0.3644,3.63656 0.3644,3.63656 0,0 -7.91714,0.078 -9.13135,0.5929 -2.17006,0.52322 -4.44581,3.53322 -0.0191,3.34867 3.51001,-1.42106 8.7536,-1.29677 14.68306,-1.32488 5.264,-0.025 11.49373,1.10179 15.68613,1.88855 2.27251,-0.77132 2.78907,-2.76731 2.5534,-4.46209 -1.82129,0.0865 -11.70182,-0.21869 -11.70182,-0.21869 0,0 0.20182,-2.27389 0.63401,-3.71781 1.99455,0.0897 4.80944,0.11071 5.69293,-0.34803 0.54582,-0.97375 0.53097,-1.75842 -0.37434,-1.98571 -1.18734,-0.35781 -10.56927,0.17858 -10.56927,0.17858 0,0 -0.39518,-1.38603 -0.72864,-2.52776 -0.5456,-1.86801 -2.65118,-2.13138 -2.66595,-0.31641 z m 5.60505,4.96067 -0.47222,3.96696 -6.95092,-0.0165 -0.39457,-3.91962 z m 0.84294,-21.70474 c 0,0 -0.8205,1.34369 0.026,2.81971 0.0226,2.44416 0.10944,11.84527 0.10944,11.84527 0,0 2.14876,1.45528 4.79874,0.11477 4.01165,0.0272 11.64336,0.0616 11.64336,0.0616 0,0 0.0227,20.79949 0.10443,28.88613 -0.0131,2.48672 3.79959,2.5133 3.75503,0.24226 0.1006,-8.81765 0.0533,-43.93432 0.0533,-43.93432 0,0 -1.43709,-0.95336 -3.13266,-0.082 -2.85262,-0.007 -11.2583,0.0172 -14.12434,0.01 -2.04531,-0.74834 -3.23338,0.0373 -3.23338,0.0373 z m 16.63677,2.03986 -0.0225,3.83293 -13.54429,-0.0476 -0.051,-3.88821 z m -0.024,6.8507 -0.0921,3.90999 -13.40089,-0.0439 -0.09,-3.90559 z m -46.71643,-9.01033 c 0,0 0.24357,29.05173 -0.20401,33.21297 -1.82121,4.43875 -3.87873,6.38363 -4.95587,7.10878 -0.76282,1.12863 0.79281,2.49473 2.81122,3.78774 9.73281,3.21699 6.79265,-28.19443 6.79265,-28.19443 l 16.98372,0.0111 c 0,0 0.0473,-10.66655 0.0591,-13.31582 0.87955,-1.53213 0.0115,-2.57983 0.0115,-2.57983 0,0 -1.25819,-1.11691 -2.82517,-0.004 -2.98278,-0.004 -11.95931,-0.017 -15.0715,-0.0214 -2.29011,-1.30775 -3.60164,-0.005 -3.60164,-0.005 z m 18.47387,6.86575 -14.47058,-0.0129 -0.006,-4.70674 14.57497,0.0916 z m 0.0457,6.98211 -14.48963,0.13086 0.003,-4.99066 14.56805,0.0267 z" style="fill: rgb(255, 249, 249); stroke: none; fill-opacity: 1; filter: url(#outline-filter-0);" id="path3452"/>
        <g id="g3777" style="fill:#fff9f9;fill-opacity:1">
          <path style="stroke: none; fill-opacity: 1; filter: url(#outline-filter-0);" d="m 398.00764,542.83244 c -0.10324,0.24039 0.0129,0.55197 0.30074,0.53074 0.37089,0.0738 0.98174,0.0133 1.05965,0.52457 0.10293,1.50778 0.0245,3.02934 0.0403,4.54212 -0.0111,1.52296 -0.0229,3.04592 -0.0343,4.56889 -0.35727,0.38823 -0.99013,0.12577 -1.36444,0.45051 -0.0843,0.2108 -0.0185,0.52432 0.27249,0.41759 2.16053,-0.0371 4.33043,0.0912 6.48441,-0.11644 1.67776,-0.26741 3.37281,-1.13396 4.30387,-2.61748 0.67218,-1.07491 1.01405,-2.35062 0.90626,-3.62658 -0.0532,-1.75274 -1.16321,-3.40653 -2.75956,-4.06517 -1.67411,-0.80289 -3.5676,-0.59266 -5.36243,-0.64393 -1.27321,0.0139 -2.56154,-0.037 -3.82522,0.0252 l -0.0218,0.01 z m 4.71091,0.65211 c 1.14746,0.0173 1.86078,0.003 2.83786,0.70765 1.28512,0.81858 1.81992,2.42919 1.8226,3.91471 0.0326,1.67662 -0.50678,3.56143 -2.00577,4.45355 -1.15782,0.65961 -2.05022,0.72083 -3.34497,0.55967 -0.49529,-0.0525 -0.79216,-0.54398 -0.74075,-1.02445 -0.069,-2.87991 -0.0405,-5.76142 -0.0667,-8.64199 0.49922,0.0103 0.99843,0.0206 1.49764,0.0309 z" id="path3713"/>
          <path style="fill: rgb(255, 249, 249); stroke: none; fill-opacity: 1; filter: url(#outline-filter-0);" d="m 415.6698,542.60616 c -0.44074,-0.007 -0.3908,0.56648 -0.58086,0.82774 -1.26974,2.93667 -2.46966,5.90457 -3.79987,8.81554 -0.21818,0.58223 -0.76638,0.99199 -1.36883,1.1196 -0.21809,0.14855 -0.15111,0.63481 0.19739,0.49782 1.04437,-0.0244 2.11043,0.0491 3.14113,-0.037 0.14376,-0.29926 -0.10779,-0.56152 -0.41174,-0.57188 -0.46018,-0.10059 -0.61738,-0.639 -0.4075,-1.01416 0.22677,-0.66837 0.51199,-1.33255 0.76832,-1.99747 1.4517,0 2.90342,0 4.35514,0 0.29139,0.89543 0.80905,1.76079 0.85532,2.701 -0.0752,0.37321 -0.62554,0.27138 -0.88716,0.43611 -0.2281,0.14134 -0.1486,0.62107 0.19314,0.48343 1.30907,-0.018 2.63406,0.036 3.93317,-0.027 0.19025,-0.27382 -0.0891,-0.56946 -0.39091,-0.57572 -0.81071,-0.24229 -0.90332,-1.18412 -1.22348,-1.81905 -1.16566,-2.90442 -2.27438,-5.8305 -3.40969,-8.74635 -0.27039,-0.14154 -0.65186,-0.0678 -0.96357,-0.0926 z m -0.0806,2.09209 c 0.58787,1.59705 1.13468,3.2088 1.7064,4.81162 -1.25259,-0.0149 -2.50771,0.0337 -3.75875,-0.035 0.67494,-1.60247 1.35545,-3.20225 2.04386,-4.79927 l 0.008,0.0226 z" id="path3715"/>
          <path style="fill: rgb(255, 249, 249); stroke: none; fill-opacity: 1; filter: url(#outline-filter-0);" d="m 422.23031,542.82421 c -0.0859,0.21531 -0.0336,0.59808 0.29799,0.5328 0.37545,0.0843 1.04542,0.0188 1.14444,0.47519 0.0893,2.98051 0.0815,5.96556 0.006,8.94644 -0.0326,0.44913 -0.65125,0.46394 -1.00037,0.52362 -0.31356,-0.0224 -0.62705,0.2318 -0.43558,0.54197 1.62829,0.0531 3.27341,0.007 4.90813,0.0226 0.25423,-0.13324 0.092,-0.58232 -0.2181,-0.55131 -0.38964,-0.10761 -1.00666,-0.0198 -1.18329,-0.4608 -0.13302,-1.2566 -0.0546,-2.53029 -0.0778,-3.79334 0.53119,0 1.06239,0 1.59357,0 1.00067,1.44512 1.89449,2.96291 2.97338,4.35494 0.35279,0.41153 0.9211,0.49442 1.4489,0.45051 0.45477,-0.0405 0.96989,0.0826 1.3906,-0.1008 0.18111,-0.29256 -0.34321,-0.39966 -0.49664,-0.56982 -1.3656,-1.10571 -2.30906,-2.62199 -3.39244,-3.97626 -0.0443,-0.17278 -0.54112,-0.45662 -0.22008,-0.55559 1.11982,-0.45254 2.13475,-1.34818 2.3083,-2.54467 0.25429,-1.20819 -0.43254,-2.53188 -1.65188,-2.97871 -1.02043,-0.43486 -2.18733,-0.25416 -3.27351,-0.32097 -1.36491,0.005 -2.74641,-0.0595 -4.10067,-0.005 l -0.0215,0.009 z m 4.48706,0.65417 c 0.74689,-0.0108 1.42796,0.003 1.92451,0.62948 0.63747,0.82028 0.5557,1.9544 0.31312,2.89026 -0.2089,0.8436 -1.08176,1.39258 -1.97794,1.3721 -0.49868,0.0331 -0.80535,0.0161 -1.3048,0.0206 0,-1.64433 0,-3.28866 0,-4.93298 0.34837,0.007 0.69674,0.0137 1.04511,0.0206 z" id="path3717"/>
          <path style="fill: rgb(255, 249, 249); stroke: none; fill-opacity: 1; filter: url(#outline-filter-0);" d="m 433.33878,542.83244 c -0.0872,0.22622 -0.0335,0.5908 0.28644,0.5616 0.37981,0.0571 0.82033,-0.0236 0.93731,0.45256 0.11832,2.87453 0.0834,5.75573 0.0167,8.6317 0.0378,0.2856 0.15627,0.62281 -0.16375,0.69737 -0.3345,0.17122 -0.79682,0.0227 -1.07253,0.288 -0.0923,0.20769 -0.0126,0.50838 0.28016,0.40319 1.51255,-0.018 3.0408,0.036 4.54353,-0.027 0.17017,-0.23815 -0.0342,-0.56517 -0.3349,-0.52636 -0.35051,-0.064 -0.88858,-0.0517 -1.05791,-0.42582 -0.14541,-1.4869 -0.0636,-2.99111 -0.10871,-4.48454 0.41914,-0.0351 0.61651,0.46097 0.90336,0.67542 1.38245,1.46289 2.664,3.03486 4.10603,4.43654 0.53525,0.49418 1.34383,0.30228 2.00708,0.3523 0.24866,-0.0599 0.69792,0.0872 0.81958,-0.19596 -0.25784,-0.43152 -0.81977,-0.62341 -1.18126,-0.97919 -1.41979,-1.07445 -2.51622,-2.45877 -3.77799,-3.70787 -0.38471,-0.40605 -0.78366,-0.81633 -1.15195,-1.2354 1.38747,-1.27381 2.80796,-2.54222 4.30063,-3.6946 0.36391,-0.31545 0.92258,-0.41766 1.19172,-0.82696 0.11389,-0.31275 -0.0818,-0.54365 -0.4244,-0.432 -0.98422,0.0244 -1.98975,-0.049 -2.9605,0.037 -0.11529,0.27204 0.0157,0.61887 0.35125,0.59656 0.22861,0.004 0.63945,0.17495 0.4474,0.45463 -0.81415,0.95335 -1.85766,1.70352 -2.7865,2.54827 -0.58328,0.48436 -1.12299,1.03079 -1.80264,1.37878 -0.0419,-1.30473 -0.0668,-2.63006 0.0627,-3.92499 0.1258,-0.55137 0.82454,-0.43093 1.24398,-0.5328 0.28389,-0.0844 0.29713,-0.70677 -0.10027,-0.55748 -1.51525,0.0184 -3.04645,-0.0363 -4.5519,0.027 l -0.0226,0.01 z" id="path3719"/>
        </g>
      </g>
    </g>
  </g>
</svg>