<?xml version="1.0" encoding="utf-8"?>
<svg viewBox="0 0 500 500" xmlns="http://www.w3.org/2000/svg" xmlns:bx="https://boxy-svg.com">
  <defs>
    <path id="path-0" style="fill: none;" d="M 337.032 157.073 C 306.2 160.541 294.318 162.641 295.77 146.671 C 295.95 144.684 295.918 142.561 296.81 140.777 C 298.818 136.761 303.62 136.047 306.519 133.148 L 307.906 132.455 C 309.754 130.606 313.7 131.415 316.227 131.415"/>
    <path id="path-1" d="M 371.012 114.424 C 371.012 143.228 369.329 162.376 376.907 177.531 C 382.1 184.664 382.486 188.296 388.696 191.401 L 389.39 191.401 C 391.089 191.401 393.213 191.748 395.284 191.748" style="fill: none;"/>
    <path id="path-2" d="M 453.19 126.214 C 418.359 95.546 395.921 69.258 369.972 57.906 C 362.905 54.814 353.927 54.381 346.394 53.051 C 327.092 53.051 310.911 53.051 294.73 53.051 C 284.28 53.051 276.805 52.358 269.071 52.358 L 266.644 51.664" style="fill: none;"/>
    <path id="path-3" d="M 404.3 50.624 L 419.556 64.147 C 428.109 71.197 436.157 78.91 445.215 85.298 C 447.278 86.753 450.28 86.17 452.497 87.379 C 472.835 98.472 476.78 101.455 489.598 110.61" style="fill: none;"/>
    <filter id="outline-filter-1" x="-500%" y="-500%" width="1000%" height="1000%" bx:preset="outline 1 1 rgba(0,0,0,1)">
      <feMorphology in="SourceAlpha" result="dilated" operator="dilate" radius="1"/>
      <feFlood flood-color="rgba(0,0,0,1)" result="flood"/>
      <feComposite in="flood" in2="dilated" operator="in" result="outline"/>
      <feMerge>
        <feMergeNode in="outline"/>
        <feMergeNode in="SourceGraphic"/>
      </feMerge>
    </filter>
    <filter id="outline-filter-2" x="-500%" y="-500%" width="1000%" height="1000%">
      <title>Outline</title>
      <feMorphology in="SourceAlpha" result="dilated" operator="dilate" radius="1"/>
      <feFlood flood-color="rgba(0,0,0,1)" result="flood" style=""/>
      <feComposite in="flood" in2="dilated" operator="in" result="outline"/>
      <feMerge result="merge-0">
        <feMergeNode in="outline"/>
        <feMergeNode in="SourceGraphic"/>
      </feMerge>
    </filter>
  </defs>
  <g id="layer1" transform="matrix(25.420193, 0, 0, 25.592402, -8285.43457, -14365.924805)" style="" bx:origin="0.500992 0.500153">
    <g id="g4793" transform="matrix(1.085054, 0, 0, 1.000819, -42.059483, -1.124031)" style="">
      <g transform="translate(0.00547206,0.0258127)" id="g3021">
        <path style="fill-opacity: 1; stroke: none; fill: rgb(251, 223, 82); filter: none;" d="M 347.579 561.972 C 344.827 562.003 342.134 563.53 340.7 566.021 C 338.419 569.742 338.593 575.057 341.41 578.418 C 343.218 580.568 346.012 581.67 348.72 581.468 C 351.683 581.407 354.564 579.607 355.955 576.838 C 357.189 574.569 357.537 571.827 357.035 569.274 C 356.51 565.91 353.94 562.968 350.778 562.195 C 349.726 561.991 348.646 561.963 347.579 561.972 Z" id="path3048"/>
        <path style="fill-opacity: 1; stroke: none; fill: rgb(43, 36, 17);" d="M 347.647 563.067 C 345.204 563.094 342.814 564.45 341.541 566.662 C 339.516 569.965 339.67 574.684 342.171 577.668 C 343.776 579.576 346.256 580.555 348.661 580.376 C 351.291 580.322 353.849 578.723 355.084 576.265 C 356.179 574.25 356.488 571.816 356.043 569.549 C 355.577 566.563 353.296 563.951 350.488 563.265 C 349.554 563.083 348.595 563.059 347.647 563.067 Z" id="path3048-4"/>
        <g id="g4771" transform="matrix(0.228462, 0, 0, 0.240448, 253.724533, 433.730377)" style="fill: rgb(255, 255, 255); fill-opacity: 1;">
          <g style="fill:#ffffff;fill-opacity:1" transform="translate(-84.567676,0)" id="g4661">
            <path style="fill: rgb(255, 255, 255); fill-opacity: 1; stroke: none; filter: url(#outline-filter-2);" d="m 495.41679,555.45688 c -0.11272,2.8363 0.001,12.46248 0.006,15.75894 -4.04425,-0.1517 -19.22827,0.21676 -20.12967,0.54761 -1.91426,0.70262 -1.78727,3.19112 -0.26081,3.85418 2.08778,0.90687 11.92333,0.29591 14.52689,0.29335 -0.004,4.02407 -2.12215,7.06125 -4.37736,10.43967 -2.27149,3.18701 -6.06524,6.17457 -8.79468,7.81109 -2.21015,1.32517 -4.03255,2.3092 -6.47335,2.18074 -1.95074,-0.10267 -1.26123,1.9273 -1.10708,3.01297 0.29439,2.07328 4.65537,2.28937 5.83018,1.79537 3.8795,-2.42873 6.53772,-3.81595 9.38178,-6.73421 2.15237,-2.20853 4.59339,-6.60577 5.50582,-7.58146 1.28736,-1.37662 3.89491,-8.55697 4.34106,-10.02249 0.49481,-1.62535 0.97865,-1.48229 2.26805,-1.35073 1.27993,0 2.55985,0 3.83978,0 0.626,5.85665 -0.66704,23.48283 0.9179,23.98911 6.1861,1.07405 19.20837,3.28933 25.14775,1.96442 1.52957,-1.42268 2.67635,-4.66847 1.82575,-7.39139 -7.90596,2.06547 -8.94335,1.17023 -23.65929,1.42155 -0.59975,-5.11984 -0.0152,-13.82908 -2e-5,-19.98367 5.34859,0 10.17536,-0.13578 15.65238,-0.0787 1.55757,0.0162 2.75184,-3.86998 0.48769,-3.89196 -8.39851,-0.16659 -13.27633,0.10886 -20.17607,-0.26156 -0.0957,-5.28627 0.10825,-10.51327 -0.0895,-15.79193 -0.0251,-2.27077 -4.44215,-1.95524 -4.66348,0.0191 z" id="path4466"/>
            <path style="fill: rgb(255, 255, 255); fill-opacity: 1; stroke: none; filter: url(#outline-filter-2);" d="m 507.27507,559.67595 c 2.33184,1.77217 3.29149,5.74031 5.38996,5.87832 2.81049,0.18485 5.03733,-1.48802 5.84656,-3.18702 0.44606,-0.93652 -8.0955,-3.42564 -10.05858,-4.09577 -1.0472,-0.35748 -1.74088,0.97665 -1.17794,1.40447 z" id="path4468"/>
            <path style="fill: rgb(255, 255, 255); fill-opacity: 1; stroke: none; filter: url(#outline-filter-2);" d="m 486.81056,558.61792 c -3.06262,1.59121 -5.6519,1.51564 -9.20874,1.28084 -1.66188,3.45951 1.84276,5.90505 2.08582,6.4388 0.4218,0.92623 2.26623,0.87082 2.99268,0.28717 2.68397,-2.15638 5.97399,-4.21295 5.89216,-7.64775 -0.0208,-0.87319 -0.86454,-0.8253 -1.76192,-0.35906 z" id="path4470"/>
          </g>
          <path id="path4692" d="m 388.32416,541.47719 c -0.10053,0.22296 -0.008,0.69421 0.29401,0.66098 0.34411,0.0707 0.88066,-0.11069 1.04897,0.25543 0.11092,1.44354 0.0413,2.90337 0.0709,4.35381 -0.0226,1.4786 0.0609,2.96545 -0.0563,4.43696 -0.21892,0.45406 -0.67244,0.34586 -1.09018,0.40513 -0.18455,0.12643 -0.17795,0.70693 0.18149,0.58558 2.7392,-0.009 5.26519,0.0202 7.9987,-0.023 0.2116,-0.44522 0.20756,-1.10411 0.33408,-1.58932 0.0378,-0.41748 0.23159,-0.98488 0.17588,-1.39965 -0.20211,-0.25715 -0.58885,0.0688 -0.60737,0.36072 -0.30104,0.72705 -0.76427,1.6387 -1.60977,1.82556 -0.89653,0.20901 -1.0947,0.18991 -2.00202,0.0455 -0.46669,-0.0487 -0.74871,-0.49183 -0.69509,-0.92525 -0.0344,-2.62197 -0.0312,-5.25835 0.0273,-7.87969 -0.0458,-0.44211 0.49897,-0.38159 0.83427,-0.42249 0.209,-0.0208 0.60301,-0.15189 0.56134,-0.45853 0.0753,-0.45494 -0.53507,-0.20674 -0.80216,-0.26891 -1.29323,0.0162 -3.35264,-0.0325 -4.63644,0.0244 l -0.0275,0.0127 z" style="fill: rgb(255, 255, 255); fill-opacity: 1; stroke: none; filter: url(#outline-filter-1);"/>
          <path id="path4694" d="M 397.873 541.477 C 397.799 541.67 397.874 542.135 398.181 542.071 C 398.526 542.147 399.306 542.096 399.573 542.347 C 399.756 542.682 399.588 543.025 399.641 543.39 C 399.666 545.995 399.702 548.612 399.594 551.209 C 399.369 551.617 398.419 551.529 398.022 551.599 C 397.776 551.646 397.738 552.31 398.12 552.175 C 399.574 552.175 401.776 552.175 403.23 552.175 C 403.423 552.059 403.419 551.482 403.064 551.578 C 402.704 551.53 402.327 551.623 402.132 551.257 C 402.016 549.637 402.08 548.003 402.053 546.376 C 402.071 545.072 402.045 543.834 402.149 542.538 C 402.286 542.17 402.642 542.198 402.957 542.106 C 403.183 542.12 403.398 541.907 403.336 541.654 C 403.338 541.248 402.898 541.518 402.633 541.44 C 401.359 541.456 399.165 541.408 397.901 541.464 L 397.873 541.477 Z" style="fill: rgb(255, 255, 255); fill-opacity: 1; filter: url(#outline-filter-2);" transform="matrix(1, 0, 0, 1, 0.00008, -0.000062)"/>
          <path d="M 397.879 540.964 C 399.159 540.908 401.361 540.956 402.627 540.94 L 402.776 540.938 L 402.774 540.96 C 402.77 540.998 402.864 540.934 403.06 540.925 C 403.17 540.919 403.413 540.95 403.559 541.057 C 403.703 541.162 403.788 541.386 403.825 541.582 C 403.836 541.839 403.768 542.155 403.627 542.313 C 403.486 542.472 403.157 542.59 402.926 542.605 L 403.056 542.597 C 402.872 542.644 402.734 542.662 402.65 542.691 C 402.646 542.692 402.642 542.694 402.638 542.695 C 402.546 543.924 402.571 545.066 402.553 546.375 C 402.58 548.014 402.52 549.509 402.619 551.044 C 402.62 551.044 402.621 551.044 402.622 551.044 C 402.722 551.062 402.882 551.057 403.09 551.078 L 402.933 551.095 C 403.153 551.071 403.47 551.125 403.601 551.242 C 403.728 551.357 403.828 551.591 403.847 551.725 C 403.866 551.854 403.85 552.046 403.813 552.166 C 403.773 552.296 403.619 552.492 403.488 552.604 L 403.403 552.675 C 401.95 552.675 399.579 552.675 398.124 552.675 L 398.287 552.646 C 398.051 552.688 397.703 552.642 397.565 552.511 C 397.432 552.385 397.343 552.123 397.336 551.979 C 397.329 551.843 397.369 551.635 397.429 551.511 C 397.496 551.374 397.741 551.19 397.935 551.107 C 398.18 551.068 398.531 551.068 398.813 551.034 C 399.092 551.001 399.045 551.022 399.101 551.02 C 399.201 548.492 399.166 546.001 399.141 543.395 L 399.141 543.37 L 399.146 543.462 C 399.116 542.951 399.24 542.812 399.202 542.674 C 399.058 542.55 398.542 542.632 398.135 542.57 L 398.283 542.56 C 398.089 542.573 397.813 542.524 397.689 542.429 C 397.569 542.337 397.455 542.155 397.414 542.04 C 397.337 541.828 397.353 541.484 397.406 541.298 L 397.458 541.119 L 397.78 540.969 Z M 402.492 541.92 C 402.761 541.96 403.02 541.928 403.109 541.923 C 403.142 541.922 403.025 541.905 402.969 541.864 C 402.916 541.825 402.908 541.779 402.883 541.728 C 402.892 541.7 402.891 541.659 402.886 541.649 C 402.905 541.649 402.983 541.631 402.988 541.607 L 402.995 541.566 L 402.817 541.626 C 402.706 541.663 402.524 541.676 402.322 541.746 C 402.226 541.779 402.117 541.849 402.011 541.943 C 402.232 541.943 402.44 541.942 402.628 541.94 Z M 402.011 541.943 C 401.356 541.944 400.583 541.937 399.842 541.936 C 399.867 541.951 399.892 541.966 399.915 541.983 L 399.987 542.033 L 400.012 542.107 C 400.2 542.672 400.06 543.099 400.136 543.318 L 400.14 543.332 L 400.141 543.385 C 400.166 545.989 400.202 548.619 400.094 551.23 L 400.087 551.383 L 400.032 551.45 C 399.964 551.533 399.883 551.608 399.793 551.675 C 400.475 551.675 401.183 551.675 401.847 551.675 C 401.791 551.619 401.738 551.558 401.691 551.492 L 401.643 551.426 L 401.633 551.293 C 401.517 549.645 401.58 547.997 401.553 546.384 C 401.571 545.089 401.546 543.819 401.651 542.498 L 401.658 542.406 L 401.68 542.364 C 401.767 542.2 401.887 542.054 402.011 541.943 Z" style="fill: none;" transform="matrix(1, 0, 0, 1, 0.00008, -0.000062)"/>
          <path d="M 397.879 540.964 C 399.159 540.908 401.361 540.956 402.627 540.94 L 402.776 540.938 L 402.774 540.96 C 402.77 540.998 402.864 540.934 403.06 540.925 C 403.17 540.919 403.413 540.95 403.559 541.057 C 403.703 541.162 403.788 541.386 403.825 541.582 C 403.836 541.839 403.768 542.155 403.627 542.313 C 403.486 542.472 403.157 542.59 402.926 542.605 L 403.056 542.597 C 402.872 542.644 402.734 542.662 402.65 542.691 C 402.646 542.692 402.642 542.694 402.638 542.695 C 402.546 543.924 402.571 545.066 402.553 546.375 C 402.58 548.014 402.52 549.509 402.619 551.044 C 402.62 551.044 402.621 551.044 402.622 551.044 C 402.722 551.062 402.882 551.057 403.09 551.078 L 402.933 551.095 C 403.153 551.071 403.47 551.125 403.601 551.242 C 403.728 551.357 403.828 551.591 403.847 551.725 C 403.866 551.854 403.85 552.046 403.813 552.166 C 403.773 552.296 403.619 552.492 403.488 552.604 L 403.403 552.675 C 401.95 552.675 399.579 552.675 398.124 552.675 L 398.287 552.646 C 398.051 552.688 397.703 552.642 397.565 552.511 C 397.432 552.385 397.343 552.123 397.336 551.979 C 397.329 551.843 397.369 551.635 397.429 551.511 C 397.496 551.374 397.741 551.19 397.935 551.107 C 398.18 551.068 398.531 551.068 398.813 551.034 C 399.092 551.001 399.045 551.022 399.101 551.02 C 399.201 548.492 399.166 546.001 399.141 543.395 L 399.141 543.37 L 399.146 543.462 C 399.116 542.951 399.24 542.812 399.202 542.674 C 399.058 542.55 398.542 542.632 398.135 542.57 L 398.283 542.56 C 398.089 542.573 397.813 542.524 397.689 542.429 C 397.569 542.337 397.455 542.155 397.414 542.04 C 397.337 541.828 397.353 541.484 397.406 541.298 L 397.458 541.119 L 397.78 540.969 Z M 402.492 541.92 C 402.761 541.96 403.02 541.928 403.109 541.923 C 403.142 541.922 403.025 541.905 402.969 541.864 C 402.916 541.825 402.908 541.779 402.883 541.728 C 402.892 541.7 402.891 541.659 402.886 541.649 C 402.905 541.649 402.983 541.631 402.988 541.607 L 402.995 541.566 L 402.817 541.626 C 402.706 541.663 402.524 541.676 402.322 541.746 C 402.226 541.779 402.117 541.849 402.011 541.943 C 402.232 541.943 402.44 541.942 402.628 541.94 Z M 402.011 541.943 C 401.356 541.944 400.583 541.937 399.842 541.936 C 399.867 541.951 399.892 541.966 399.915 541.983 L 399.987 542.033 L 400.012 542.107 C 400.2 542.672 400.06 543.099 400.136 543.318 L 400.14 543.332 L 400.141 543.385 C 400.166 545.989 400.202 548.619 400.094 551.23 L 400.087 551.383 L 400.032 551.45 C 399.964 551.533 399.883 551.608 399.793 551.675 C 400.475 551.675 401.183 551.675 401.847 551.675 C 401.791 551.619 401.738 551.558 401.691 551.492 L 401.643 551.426 L 401.633 551.293 C 401.517 549.645 401.58 547.997 401.553 546.384 C 401.571 545.089 401.546 543.819 401.651 542.498 L 401.658 542.406 L 401.68 542.364 C 401.767 542.2 401.887 542.054 402.011 541.943 Z" style="fill: none;" transform="matrix(1, 0, 0, 1, 0.00008, -0.000062)"/>
          <path id="path4696" d="m 410.404,541.28613 c -1.89028,0.0615 -4.18984,1.00079 -5.27949,2.84189 -0.91864,1.56002 -0.85556,3.79399 -0.13547,5.47156 0.76131,1.69461 2.56904,2.37483 4.15818,2.63919 1.59933,0.24226 3.23029,-0.0505 4.76305,-0.58381 0.15101,-0.27176 0.0306,-0.67785 0.0756,-1.00124 0.0421,-0.92058 -0.0483,-1.71803 0.10304,-2.61494 0.15746,-0.29981 0.52911,-0.23961 0.78919,-0.32729 0.16923,0.009 0.38149,-0.20186 0.34954,-0.45103 0.0673,-0.45864 -0.45679,-0.21084 -0.68666,-0.27245 -1.18982,0.0164 -2.39268,-0.0327 -3.57444,0.0244 -0.16104,0.28021 0.006,0.79766 0.33234,0.69387 0.3499,0.0823 0.59868,-0.006 0.85857,0.32367 0.0244,0.17997 0.0431,0.35362 0.0567,0.52376 0.0487,0.60972 0.0322,1.17447 -0.0195,1.82395 -0.0378,0.50288 -0.0851,1.0247 -0.54949,1.13578 -1.0089,0.29896 -2.10982,0.12259 -3.0542,-0.35028 -1.38784,-0.78517 -1.35657,-2.5763 -1.40429,-4.28792 -0.0352,-1.37179 0.23011,-2.87191 1.16684,-3.82133 0.82934,-0.86995 1.31495,-0.97201 2.40509,-0.92909 0.95981,0.0644 1.04178,0.0325 1.5632,1.03271 0.17189,0.34146 0.24327,0.73706 0.37489,1.0878 0.29428,0.0987 1.21976,0.2106 1.15441,-0.21175 -0.0911,-0.58859 -0.12953,-1.18002 -0.34103,-1.73311 -0.201,-0.52564 -0.94669,-0.64367 -1.39052,-0.81057 -0.74025,-0.20196 -0.95513,-0.22591 -1.71562,-0.20377 z" style="fill: rgb(255, 255, 255); fill-opacity: 1; stroke: none; filter: url(#outline-filter-2);"/>
          <path id="path4698" d="m 416.37524,541.47719 c -0.0703,0.19273 -0.036,0.66276 0.25426,0.59827 0.32691,0.0764 0.7302,0.0248 0.98266,0.27597 0.1734,0.33578 0.051,0.67343 0.10178,1.03816 0.0238,2.60565 0.0575,5.1441 -0.0451,7.74087 -0.21243,0.4081 -0.77713,0.32022 -1.15284,0.39013 -0.23282,0.0464 -0.26872,0.78972 0.0929,0.65449 1.41197,-0.0164 3.33905,0.0604 4.74211,0.003 0.12312,-0.24673 0.0179,-0.7635 -0.3492,-0.65045 -0.32326,-0.0548 -0.86106,-3.9e-4 -0.96139,-0.41754 -0.11057,-1.37002 -0.0412,-2.68216 -0.0785,-4.06279 -0.1263,-0.48345 0.49021,-0.20821 0.7674,-0.27958 1.60455,0 1.7069,-0.0278 3.31147,-0.0278 -0.0346,1.47296 0.0288,2.8781 -0.079,4.3406 -0.10245,0.4277 -0.64643,0.36186 -0.97529,0.41301 -0.37636,-0.10094 -0.38064,0.4091 -0.28911,0.65637 1.42336,0.0579 3.86731,0.008 5.29803,0.0247 0.24762,0.003 0.24611,-0.73475 -0.0479,-0.67003 -0.35379,-0.053 -0.6953,0.0244 -0.92766,-0.31799 -0.17321,-0.88887 -0.0682,-1.74323 -0.10433,-2.65107 0.0195,-1.97988 -0.0473,-3.88232 0.0511,-5.85727 -0.0175,-0.23807 0.11438,-0.46827 0.35733,-0.47767 0.29732,-0.10491 0.47535,-0.0697 0.76078,-0.18222 0.12224,-0.1825 0.11274,-0.68334 -0.19928,-0.5788 -1.38911,0.0163 -3.79397,-0.0325 -5.17413,0.0244 -0.14158,0.19236 -0.0385,0.6601 0.25233,0.6181 0.30995,0.0707 0.72527,0.0266 0.94658,0.29545 0.20104,0.76513 0.0824,1.49307 0.11133,2.27832 -0.004,0.42813 -0.008,0.85626 -0.0116,1.28439 -1.84048,0 -2.17876,0.0278 -4.01925,0.0278 0.0221,-1.16481 -0.10029,-2.25713 0.0498,-3.41234 0.10323,-0.42532 0.65038,-0.36638 0.9775,-0.43697 0.23879,0.028 0.44917,-0.23789 0.37622,-0.49743 -0.097,-0.32436 -0.60509,-0.0765 -0.86927,-0.15391 -1.20582,0.0164 -2.92678,-0.0606 -4.12366,-0.003 l -0.026,0.0127 z" style="fill: rgb(255, 255, 255); fill-opacity: 1; stroke: none; filter: url(#outline-filter-2);"/>
          <path id="path4700" d="m 429.31154,541.51008 c -0.18121,0.78106 -0.3803,1.57908 -0.49816,2.36559 0.24128,0.18648 0.6493,0.0254 0.74657,-0.25326 0.35857,-0.63443 0.82781,-1.36196 1.67005,-1.46307 0.7266,-0.12614 0.99222,-0.0717 1.72727,-0.085 -0.0312,2.97793 0.02,5.96217 -0.0745,8.93584 0.024,0.45102 -0.10161,0.53734 -0.46762,0.56908 -0.21743,0.0153 -0.62141,0.006 -0.57939,0.30664 -0.0758,0.45119 0.56489,0.20263 0.84458,0.26537 1.36163,-0.0162 2.73914,0.0325 4.09083,-0.0244 0.14307,-0.17215 0.0593,-0.54044 -0.24245,-0.52051 -0.34722,-0.0804 -0.92854,-0.0322 -1.19189,-0.28129 -0.20118,-0.80519 -0.0871,-1.65421 -0.13375,-2.47855 -0.0111,-2.26034 -0.0173,-4.5207 -0.0266,-6.78104 0.8158,0.0609 1.42411,-0.063 2.21743,0.1486 0.78908,0.24922 1.15247,1.00792 1.5707,1.61521 0.16571,0.21838 0.7199,0.12248 0.53388,-0.20435 -0.14576,-0.69228 -0.0583,-1.39889 -0.23396,-2.08136 -0.59414,-0.10367 -1.07654,-0.027 -1.68657,-0.0605 -2.72734,-0.0182 -5.45476,-0.007 -8.18215,-0.0102 l -0.0552,0.0244 -0.029,0.0127 z" style="fill: rgb(255, 255, 255); fill-opacity: 1; stroke: none; filter: url(#outline-filter-2);"/>
        </g>
      </g>
    </g>
  </g>
</svg>